<?xml version="1.0" standalone="no"?><!DOCTYPE svg PUBLIC "-//W3C//DTD SVG 1.1//EN" "http://www.w3.org/Graphics/SVG/1.1/DTD/svg11.dtd"><svg t="1638810044494" class="icon" viewBox="0 0 1024 1024" version="1.1" xmlns="http://www.w3.org/2000/svg" p-id="10845" xmlns:xlink="http://www.w3.org/1999/xlink" width="200" height="200"><defs><style type="text/css"></style></defs><path d="M80.3 885.5v-96.4c0-11.2 9.2-20.5 20.5-20.5h592.4c11.2 0 20.5 9.2 20.5 20.5v96.4c0 11.2-9.2 20.5-20.5 20.5H100.8c-11.3 0-20.5-9.2-20.5-20.5z" fill="#C5CCCF" p-id="10846"></path><path d="M80.3 663.7v-96.4c0-11.2 9.2-20.5 20.5-20.5h349.4c11.2 0 20.5 9.2 20.5 20.5v96.4c0 11.2-9.2 20.5-20.5 20.5H100.8c-11.3 0-20.5-9.2-20.5-20.5z" fill="#FFAD40" p-id="10847"></path><path d="M80.3 441.9v-96.4c0-11.2 9.2-20.5 20.5-20.5h900.7c11.2 0 20.5 9.2 20.5 20.5v96.4c0 11.2-9.2 20.5-20.5 20.5H100.8c-11.3 0-20.5-9.2-20.5-20.5z" fill="#C5CCCF" p-id="10848"></path><path d="M80.3 220.1v-96.4c0-11.2 9.2-20.5 20.5-20.5h739.8c11.2 0 20.5 9.2 20.5 20.5v96.4c0 11.2-9.2 20.5-20.5 20.5H100.8c-11.3 0-20.5-9.2-20.5-20.5z" fill="#FFAD40" p-id="10849"></path><path d="M1.5 36h34.9v951.5H1.5z" fill="#C5CCCF" p-id="10850"></path></svg>