<?xml version="1.0" standalone="no"?><!DOCTYPE svg PUBLIC "-//W3C//DTD SVG 1.1//EN" "http://www.w3.org/Graphics/SVG/1.1/DTD/svg11.dtd"><svg t="1639662553018" class="icon" viewBox="0 0 1024 1024" version="1.1" xmlns="http://www.w3.org/2000/svg" p-id="2041" xmlns:xlink="http://www.w3.org/1999/xlink" width="200" height="200"><defs><style type="text/css"></style></defs><path d="M360.96 606.788267l6.314667-4.010667c92.706133-59.784533 186.88-49.152 270.813866 3.601067 23.876267 15.0016 41.813333 30.088533 52.974934 41.403733l2.286933 2.372267-49.6128 46.8992-3.0208-2.986667a263.406933 263.406933 0 0 0-38.946133-29.883733c-62.020267-38.980267-126.976-47.086933-192.682667-7.048534l-4.8128 3.003734c-110.7968 71.4752-206.5408 82.466133-281.002667 56.200533-12.509867-4.420267-21.9648-9.079467-28.279466-13.0048l-2.218667-1.450667 38.1952-56.576 2.372267 1.28c3.413333 1.757867 7.6288 3.584 12.629333 5.358934 53.384533 18.8416 124.9792 11.178667 215.005867-45.1584z" fill="#00B386" p-id="2042"></path><path d="M362.837333 85.879467c12.458667-22.528 44.117333-23.466667 58.112-2.645334l1.4848 2.4064 240.827734 427.025067 0.580266 0.682667c0.546133 0.682667 1.0752 1.3824 1.570134 2.116266l1.416533 2.269867c2.6112 4.539733 5.102933 9.147733 7.458133 13.824l2.474667 5.085867 0.989867 1.928533 0.512 1.245867 2.696533 5.870933a283.562667 283.562667 0 0 1 23.825067 106.2912l0.1024 7.936c0 163.771733-139.093333 295.816533-309.76 295.816533C224.426667 955.733333 85.333333 823.688533 85.333333 659.9168c0-40.6528 8.618667-80.145067 25.002667-116.616533l1.297067-2.816 0.3584-0.8704 1.706666-3.566934c1.1776-2.389333 2.372267-4.778667 3.601067-7.168l3.7888-7.082666c0.8192-1.4848 1.706667-2.850133 2.6112-4.1472l0.955733-1.28L362.837333 85.879467z m30.139734 86.528L174.045867 568.1152l-2.3552 5.205333a215.3472 215.3472 0 0 0-17.9712 79.6672L153.6 659.9168C153.6 785.186133 261.358933 887.466667 395.1104 887.466667c133.768533 0 241.5104-102.2976 241.5104-227.549867 0-31.146667-6.621867-61.3376-19.268267-89.2416l-1.314133-2.730667-223.061333-395.537066zM864.8704 499.473067a34.133333 34.133333 0 0 1 46.592 12.578133 221.730133 221.730133 0 0 1 29.696 110.8992c0 118.7328-94.088533 217.1904-216.0128 229.1712a34.133333 34.133333 0 1 1-6.656-67.925333c87.7056-8.635733 154.4192-78.421333 154.4192-161.245867a153.480533 153.480533 0 0 0-20.616533-76.885333 34.133333 34.133333 0 0 1 12.578133-46.592z" fill="#ffffff" p-id="2043" data-spm-anchor-id="a313x.7781069.0.i12" class="selected"></path><path d="M669.2352 187.221333c12.987733-21.623467 43.8272-21.981867 57.5488-1.536l1.450667 2.338134 190.549333 337.92a34.133333 34.133333 0 0 1-58.077867 35.805866l-1.399466-2.269866-161.757867-286.8736-41.608533 69.3248a34.133333 34.133333 0 0 1-44.373334 13.021866l-2.4576-1.348266a34.133333 34.133333 0 0 1-13.038933-44.373334l1.365333-2.4576 71.799467-119.552z" fill="#ffffff" p-id="2044" data-spm-anchor-id="a313x.7781069.0.i13" class="selected"></path></svg>