<?xml version="1.0" standalone="no"?><!DOCTYPE svg PUBLIC "-//W3C//DTD SVG 1.1//EN" "http://www.w3.org/Graphics/SVG/1.1/DTD/svg11.dtd"><svg t="1639398198525" class="icon" viewBox="0 0 1024 1024" version="1.1" xmlns="http://www.w3.org/2000/svg" p-id="3290" xmlns:xlink="http://www.w3.org/1999/xlink" width="200" height="200"><defs><style type="text/css"></style></defs><path d="M1021.402968 333.189555c-1.538982 5.386436-4.616945 10.003382-9.23389 13.850836L923.677625 406.291189l-12.311854 8.4644-492.474169 492.474169-9.23389 13.081345-64.637235 93.877888c-3.077964 4.616945-8.4644 7.694909-13.850836 9.233891-3.847454 0.769491-8.4644 0.769491-12.311854 0l-23.854218-2.308473c-7.694909-2.308473-13.850836-7.694909-16.928799-15.389818l-6.925418-30.779635c-2.308473-6.155927-6.925418-11.542363-13.850836-13.850836l-34.62709-10.003382c-6.925418-3.077964-12.311854-9.233891-14.620327-16.928799l-3.077964-26.932181c-2.308473-8.4644-8.4644-15.389818-16.928799-17.698291l-29.240654-4.616945c-7.694909-2.308473-13.850836-8.4644-16.928799-16.159309l-5.386437-31.549126c-2.308473-7.694909-7.694909-13.081345-14.620327-16.159309l-30.779635-6.925418c-6.925418-2.308473-11.542363-7.694909-14.620327-14.620327l-6.925418-30.779635c-2.308473-6.925418-8.4644-12.311854-16.159309-14.620327L23.373286 749.484125c-8.4644-2.308473-14.620327-9.233891-16.9288-17.69829l-2.308472-29.240654c-0.769491-2.308473-0.769491-4.616945-0.769491-6.925418 0.769491-6.925418 3.847454-13.850836 10.003381-17.69829l104.650761-70.793162 20.776254-20.776254 96.955852-96.955852 374.742063-374.742063 64.637234-98.494833c5.386436-7.694909 15.389818-11.542363 25.3932-10.003382l29.240653 2.308473c8.4644 1.538982 15.389818 8.4644 17.698291 16.928799l4.616945 30.010145c2.308473 7.694909 7.694909 13.081345 14.620327 16.159309l30.779636 7.694909c6.925418 2.308473 11.542363 7.694909 14.620327 14.620326l7.694908 30.779636c3.077964 6.925418 8.4644 12.311854 16.159309 14.620327l31.549127 5.386436c7.694909 2.308473 13.850836 8.4644 16.159308 16.159309l4.616946 29.240653c2.308473 8.4644 9.233891 14.620327 17.69829 16.9288l26.932181 3.077964c7.694909 1.538982 13.850836 6.925418 16.9288 14.620326l10.003381 34.62709c2.308473 6.155927 7.694909 11.542363 13.850836 13.850836l30.779636 6.925418c7.694909 3.077964 13.081345 9.233891 15.389817 16.9288l2.308473 23.854218c0 1.538982 0.769491 2.308473 0.769491 3.847454 0 3.077964-0.769491 6.155927-1.538982 8.4644z" fill="#D5E6FD" p-id="3291"></path><path d="M698.986286 425.528461c-0.769491 1.538982-1.538982 2.308473-3.077964 3.077964l-63.867743 46.938944-45.399963 33.088108 46.938944 45.399963 10.003382 10.003381c5.386436 5.386436 2.308473 15.389818-5.386436 16.159309l-255.470975 40.013526c-9.233891 1.538982-14.620327-10.772872-6.925418-16.159308l42.321999-31.549127 65.406725-48.477926-54.633853-54.633853c-5.386436-5.386436-2.308473-14.620327 5.386436-16.159309l49.247417-7.694909 206.223558-33.088108c6.925418-1.538982 12.311854 6.925418 9.233891 13.081345z" fill="#3973F4" p-id="3292"></path><path d="M698.986286 425.528461L631.271088 475.545369l0.769491 0.769491-45.399963 33.088108 46.938944 45.399963-206.223558 32.318617c-8.4644 1.538982-13.081345-8.4644-9.23389-14.620327l2.308472-2.308473 63.098253-46.938944 44.630472-33.857599-45.399963-44.630471 206.223558-33.088109c7.694909-0.769491 13.081345 7.694909 10.003382 13.850836z" fill="#4988FD" p-id="3293"></path><path d="M991.392824 355.504791c0 3.077964 0 5.386436-0.769491 8.464399l-2.308473 1.538982-57.711817 41.552508-29.240653 21.545745-8.4644 8.4644-483.240278 483.240278-6.925418 6.925418-10.772873 15.389818-55.403344 74.640616-4.616945 6.155927c-3.847454 0.769491-8.4644 0.769491-12.311854 0l-23.854218-2.308473c-7.694909-2.308473-13.850836-7.694909-16.928799-15.389818l-6.925418-30.779635c-2.308473-6.155927-6.925418-11.542363-13.850836-13.850836l-34.62709-10.003382c-0.769491 0-1.538982-0.769491-2.308473-0.769491 6.925418-7.694909 13.850836-15.389818 21.545745-21.545744 52.32538-43.860981 70.023671-157.745632 275.477738-218.535413C723.609994 648.680819 662.820214 570.192748 754.38963 438.609807c91.569416-131.582942 118.501597-52.32538 227.769303-100.803307l7.694909-3.847454v0.769491l0.769491 13.081345c0 0.769491 0.769491 1.538982 0.769491 2.308472 0.769491 2.308473 0.769491 3.847454 0 5.386437zM123.407101 741.789217c-11.542363 20.006763-26.932181 46.169453-40.013526 67.715198-2.308473-2.308473-4.616945-5.386436-6.155927-8.4644l-6.925418-30.779636c0-0.769491-0.769491-1.538982-0.769491-2.308472l43.860981-34.62709c6.155927-5.386436 13.850836 1.538982 10.003381 8.4644zM188.813827 802.578997c-11.542363 20.006763-26.932181 46.169453-40.013526 67.715198-2.308473-2.308473-4.616945-5.386436-6.155928-8.4644l-7.694908-30.779635c0-0.769491-0.769491-1.538982-0.769491-2.308473l43.86098-34.62709c6.925418-4.616945 14.620327 2.308473 10.772873 8.4644zM250.373098 872.602668c-11.542363 20.006763-26.932181 46.169453-40.013526 67.715198-2.308473-2.308473-4.616945-5.386436-6.155927-8.4644l-7.694909-30.779635c0-0.769491-0.769491-1.538982-0.769491-2.308473l43.86098-34.62709c6.925418-4.616945 14.620327 2.308473 10.772873 8.4644z" fill="#BAD8FF" p-id="3294"></path><path d="M325.013714 942.626339c-11.542363 20.006763-26.932181 46.169453-40.013526 67.715198-2.308473-2.308473-4.616945-5.386436-6.155927-8.4644l-7.694909-30.779636c0-0.769491-0.769491-1.538982-0.769491-2.308472l43.860981-34.62709c6.155927-4.616945 14.620327 2.308473 10.772872 8.4644zM993.701296 348.579373l-2.308472 1.538981-42.321999 33.088109c-6.155927 4.616945-13.850836-2.308473-10.003382-8.4644 11.542363-19.237272 26.16269-43.860981 38.474545-66.176217 3.077964 1.538982 5.386436 3.847454 6.925418 6.925418l4.616945 19.237273 3.077963 11.542363c0.769491 0.769491 0.769491 1.538982 1.538982 2.308473zM929.064062 285.48112l-40.783017 32.318617c-6.155927 4.616945-13.850836-2.308473-10.003382-8.4644 10.772872-18.467781 25.393199-42.321999 37.705054-63.867744 1.538982 1.538982 2.308473 3.847454 3.847454 6.155928l9.233891 33.857599zM860.579373 222.382867l-37.705054 30.010144c-6.155927 4.616945-13.850836-2.308473-10.003382-8.464399 10.772872-18.467781 24.623708-42.321999 36.935563-63.098253 1.538982 2.308473 3.077964 4.616945 3.847455 6.925418l4.616945 29.240654c0 2.308473 0.769491 3.847454 2.308473 5.386436zM789.01672 149.281232l-40.783017 32.318618c-6.155927 4.616945-13.850836-2.308473-10.003382-8.4644 10.772872-18.467781 24.623708-42.321999 36.935563-63.098253 3.077964 2.308473 5.386436 6.155927 6.925418 10.003382l6.925418 29.240653zM926.755589 410.908135l-23.084727 16.928799-2.308472-2.308473-156.976142-156.976141c-6.155927-6.155927-6.155927-16.159309 0-21.545745 6.155927-6.155927 15.389818-6.155927 21.545745 0l156.976142 156.976142c1.538982 1.538982 3.077964 3.847454 3.847454 6.925418zM710.528649 228.538794c-3.847454 0-7.694909-1.538982-10.772872-4.616945l-24.623709-24.623709c-6.155927-6.155927-6.155927-15.389818 0-21.545745 6.155927-6.155927 15.389818-6.155927 21.545745 0l24.623709 24.623709c6.155927 6.155927 6.155927 15.389818 0 21.545745-3.077964 3.077964-6.925418 4.616945-10.772873 4.616945zM665.898178 168.518505c-3.077964 3.077964-6.925418 4.616945-10.772873 4.616945-3.847454 0-7.694909-1.538982-10.772872-4.616945l-2.308473-2.308473-2.308472-2.308473c6.155927-8.4644 11.542363-16.159309 16.928799-23.084726 2.308473 0.769491 5.386436 2.308473 6.925418 3.847454l2.308473 2.308473c5.386436 5.386436 5.386436 15.389818 0 21.545745zM428.894984 901.073831l-19.237272 19.237272-2.308473 2.308472c-0.769491-0.769491-1.538982-1.538982-2.308473-1.538981l-261.626902-261.626902 16.9288-16.9288 4.616945-4.616945 261.626902 261.626902c1.538982 0 2.308473 0.769491 2.308473 1.538982z" fill="#BAD8FF" p-id="3295"></path></svg>