<?xml version="1.0" standalone="no"?><!DOCTYPE svg PUBLIC "-//W3C//DTD SVG 1.1//EN" "http://www.w3.org/Graphics/SVG/1.1/DTD/svg11.dtd"><svg t="1638817856263" class="icon" viewBox="0 0 1024 1024" version="1.1" xmlns="http://www.w3.org/2000/svg" p-id="1244" xmlns:xlink="http://www.w3.org/1999/xlink" width="200" height="200"><defs><style type="text/css"></style></defs><path d="M836.836 566.687c0-2.687-19.755-28.658-25.074-47.464-5.319-18.807-15.196-31.344-9.118-34.031 6.078-2.687 4.559 24.18 16.716 17.015 12.157-7.164 34.951-3.582 2.279-41.195l1.52-12.538s30.392 0 34.951-22.389-21.275-53.733-18.235-57.315c3.039-3.582 16.278 3.582 18.776 7.164 2.498 3.582 13.895 31.344 23.773 29.553 3.014-0.547 3.745-3.532 3.051-8.024 1.492 2.259 6.606 4.129 23.542-2.701 26.593-10.725-4.559-24.191-4.559-24.191l7.598-14.339-11.359-9.851-7.878 11.642s-2.038 34.926-7.878 36.739c0 0-0.004 0.026-0.006 0.031-2.514-10.518-10.645-26.963-16.948-41.248-3.072-6.962 4.611 2.021 9.118-3.582 9.986-12.416 26.593-18.807-8.358-42.986-15.956 2.687-25.074-21.493-12.157-19.702 12.917 1.791 35.271-7.221 40.59-6.325 5.319 0.896 3.479 18.863 3.479 18.863s15.706 21.493 17.476 25.075c1.77 3.582 0.76-22.389 0.76-22.389s-17.476-11.642-12.157-17.015c5.319-5.373 13.677-0.896 18.995-3.582 5.319-2.687 0-17.911 0-17.911s-24.314-10.747-28.873-17.911-39.51-7.164-56.985-5.373c-17.476-8.06-77.5-8.955-77.5-8.955L665.88 212.05s7.091 15.523 0 19.105c-7.091 3.582-23.301-7.164-26.34 0s-24.314 13.135-27.353 15.523c-3.039 2.388-11.144 13.135-11.144 13.135l-6.078-9.553-3.546 9.553-10.637 8.657-4.562-6.453-3.036-4.294h12.157s5.319-13.433-17.476-10.747c-20.515-8.956-35.711-3.582-42.549 1.791s-11.397 17.015-17.476 19.702-5.319 25.971 0 25.971h18.236l6.838-8.06s9.118-34.031 12.917-24.18c3.799 9.851-18.235 20.598 13.677 20.598-9.633 14.33-21.275 18.807-21.275 18.807h-19.755s-21.275 12.538-25.074 15.224c-3.799 2.687-18.235-15.224-18.235-15.224s4.559 23.284 4.559 34.926c0 11.642-18.995 15.224-18.995 15.224s3.039 25.075 3.799 37.613c-9.118 8.956-9.118 25.075-9.118 25.075l-13.677 8.06-6.078 49.255s-9.118 15.224 0 20.598c9.118 5.373 24.314 31.344 24.314 31.344s15.956 3.582 22.794 0 9.877-24.18 18.995-5.373 9.877 2.687 9.877 2.687 12.157 8.06 3.799 29.553c5.319 6.269 9.118 14.329 9.118 33.135v38.509s24.314 56.42 19.755 69.853c-4.559 13.433 16.716-4.478 24.314 0 7.598 4.478 31.152-42.091 28.113-58.211-3.039-16.12 18.995-22.389 20.515-30.449 1.52-8.06-1.52-32.24-9.877-39.404-8.358-7.164 51.667-58.211 41.789-72.539-9.878-14.329-19.755 9.851-27.353 5.373-7.598-4.478-5.319-13.433-5.319-13.433s45.054-3.582 52.539-22.389 15.083-47.464 40.157-2.687c25.074 44.777 34.951 62.688 41.029 56.42s-15.196-42.986 0-47.464c15.196-4.478 5.319-20.598 16.716-20.598 11.397 0 55.466 100.302 41.029 85.973-14.436-14.329-20.515-8.06-20.515-8.06s19.755 19.702 34.951 51.046c9.877-0.896 31.152 0.896 31.152 0.896s-16.715-7.164-16.715-9.851zM872.434 555.768l5.431 10.92c0-0.001 0.734-8.163-5.431-10.92z" fill="#35A0D6" p-id="1245"></path><path d="M855.831 514.746s-13.676 14.329-18.235 17.911c-4.559 3.582 5.319 28.658 23.554 23.284 5.235-1.542 8.803-1.283 11.285-0.173l-7.486-15.051c0-0.001 4.558-25.971-9.118-25.971zM936.37 594.449l6.078-20.598 15.956 9.851s11.566-8.955-30.308-37.613c0 0-18.32 3.582-21.359-5.373-3.039-8.956 0 23.284 0 23.284l13.022 2.687 8.337 17.015s13.761 41.195 0 32.24c-13.761-8.956-15.281 1.791-13.761-8.956s-6.559-19.702-12.017-14.329-33.571 19.702-41.169 36.718-9.878 0-9.878 0l-9.877 13.433 8.358 10.747-8.358 9.851s-13.607 23.284-4.904 27.762c8.703 4.478 53.532-8.06 53.532-8.06l12.297 24.18s2.14 23.284 7.458 24.18 13.845-23.284 18.32-27.762c4.474-4.478 21.19-9.851 30.308-47.464 9.117-37.613-22.035-61.793-22.035-61.793zM362.717 266.678c9.118 11.642 15.956 19.702 18.235 19.702s55.466-36.129 55.466-36.129 25.256-20.311 19.755-36.129c-19.755-30.73-90.417-6.55-104.853-2.072-14.436 4.478 9.118-9.851 9.118-9.851s-37.182-1.791-47.083 5.373c-9.902 7.164-30.417 23.284-33.456 23.284-3.039 0-17.476-8.06-17.476-8.06l-51.667 10.747s-18.995 9.652-32.672 10.647c-13.677 0.995-53.946-9.752-53.946-9.752s-38.75 39.404-43.309 39.404c-4.559 0-21.275 16.12-16.716 18.807s24.314-25.971 46.348-8.06 31.152 24.18 22.794 51.942-3.799 86.868 11.397 103.884c15.196 17.015 40.27 12.538 50.907 30.449s19.755 30.449 34.191 34.926-4.559 35.822-0.76 47.464 10.637 33.135 10.637 33.135 9.877 23.284 25.833 34.031c15.956 10.747-18.235 155.826 44.829 163.886-13.677-42.091-18.995-67.166-8.358-70.748 10.637-3.582 15.956-3.582 15.956-3.582l27.353-68.957s18.995-4.258 17.476-5.711c-1.52-1.453 4.559-38.171 6.078-40.857s11.397-16.12 6.838-23.284c-4.559-7.164-15.956-18.807-34.191-25.075-8.358-6.945-15.196-28.658-25.074-31.344-9.877-2.687-24.314-21.593-24.314-21.593s-12.917 6.269-26.593 0c-13.677-6.269-42.549 4.577-42.549 4.577s3.799-16.12-0.76-25.075c-4.559-8.956-11.397 1.791-11.397 1.791s5.319-17.911 2.279-27.762c-3.039-9.851-18.311 7.922-18.311 7.922s-15.121-4.34-13.601-29.415c1.52-25.075 54.706-10.747 54.706-10.747l3.039 20.598 6.838-35.512 25.289-26.574 50.692-46.276s14.436 25.971 20.515 15.224c-4.112-8.212-9.877-17.911-3.799-27.762-31.912-49.255 5.319-50.151 5.319-50.151l-21.275-26.866s-12.157-7.164-8.358-8.956c3.799-1.791 9.118-20.598 22.794-11.642s25.833 26.866 25.833 26.866-9.115 11.641 0.003 23.283z" fill="#35A0D6" p-id="1246"></path></svg>