<?xml version="1.0" standalone="no"?><!DOCTYPE svg PUBLIC "-//W3C//DTD SVG 1.1//EN" "http://www.w3.org/Graphics/SVG/1.1/DTD/svg11.dtd"><svg t="1639396539910" class="icon" viewBox="0 0 1024 1024" version="1.1" xmlns="http://www.w3.org/2000/svg" p-id="782" xmlns:xlink="http://www.w3.org/1999/xlink" width="200" height="200"><defs><style type="text/css"></style></defs><path d="M831.31 309.56l35.36-59.554 20.638 12.252-35.36 59.554zM869.572 367.924l77.114-11.168 3.44 23.752-77.116 11.168zM737.22 223.794l22.5-8.354 27.12 73.046-22.5 8.354z" fill="#DDD3D4" p-id="783"></path><path d="M85.88 280.06m95.9 0l372.06 0q95.9 0 95.9 95.9l0 410.78q0 95.9-95.9 95.9l-372.06 0q-95.9 0-95.9-95.9l0-410.78q0-95.9 95.9-95.9Z" fill="#C5B4B8" p-id="784"></path><path d="M190.52 285.14m95.9 0l271.84 0q95.9 0 95.9 95.9l0 410.78q0 95.9-95.9 95.9l-271.84 0q-95.9 0-95.9-95.9l0-410.78q0-95.9 95.9-95.9Z" fill="#DCD3D4" p-id="785"></path><path d="M85.88 421.94H641.4v319.58H85.88z" fill="#4966A2" p-id="786"></path><path d="M533.56 422s-44.74 86.2-6.74 105.04l16.9 214.52h70L596.64 422z" fill="#3D5890" p-id="787"></path><path d="M478 638.82c-0.16 0.92-0.3 1.88-0.42 3-1.36 12.64-11.22 24.68-30.2 24.68h-0.7c-12.36 5.86-63.16 24.58-114 24.58-21.3 0-47.5-6-62.24-27.5-2.12-3.08-6.68-6.5-9.42-12.5-6.38-14-1.56-27.48-0.34-30.64l15.64-11.2a26.3 26.3 0 0 0 20.7-2.9c11.34-6.74 30.56-12.58 58.78-3.64 16.48-10.74 43.18-6.5 50.6-3.62l17.28 2.5c-1.84-7.58-20-13-12-56.76 1.2-6.64-1.82-21.36-3.72-27.76-5.12-0.16-9.28 0.58-15.6-0.4a36.62 36.62 0 0 1-16.4-7.86c-18.24-14.72-15.5-32.1-4-44.9l10.18-4 3.42-0.76c45.76-10.22 60.52 27.4 61.38 28.32l1.28 1.62c2.18 3.22 42.94 79.56 29.78 149.74z" fill="#F4B4B1" p-id="788"></path><path d="M85.88 741.5H641.4v41.44H85.88z" fill="#E08476" p-id="789"></path><path d="M155.24 137.3m7.96 0l409.22 0q7.96 0 7.96 7.96l0 82.16q0 7.96-7.96 7.96l-409.22 0q-7.96 0-7.96-7.96l0-82.16q0-7.96 7.96-7.96Z" fill="#4966A2" p-id="790"></path><path d="M187.76 238.44H557.4v41.44H187.76z" fill="#E08476" p-id="791"></path><path d="M838.28 514.72H612c-9.28 0-16.38-9.46-15.02-20l9.68-74.46a438 438 0 0 1 239.72 0q3.54 37.56 7.1 75.14c0.86 10.32-6.16 19.32-15.2 19.32z" fill="#DCD3D4" p-id="792"></path><path d="M613.66 408v-16.74c0-20.32 18.12-36.82 40.5-36.82a42.54 42.54 0 0 1 28.66 10.78 35.16 35.16 0 0 1 11.86 26v7.28" fill="#F2463E" p-id="793"></path><path d="M696 404.78V374a10.42 10.42 0 0 1 10.42-10.42h94.6a10.42 10.42 0 0 1 10.42 10.42v30.74" fill="#F4B4B1" p-id="794"></path><path d="M816.56 883.82h-190.9a0.86 0.86 0 0 1-0.86-0.84L606 514.5a0.86 0.86 0 0 1 0.86-0.94H834a0.88 0.88 0 0 1 0.86 0.94l-17.44 368.48a0.9 0.9 0 0 1-0.86 0.84z" fill="#FFEEF0" p-id="795"></path><path d="M830.34 625.7s-5.84-18-99.5-8.94-120.38-18.44-120.38-18.44L634 851.46h177.32z" fill="#F4B4B1" p-id="796"></path><path d="M774 695a12 12 0 1 1-12-12 12 12 0 0 1 12 12zM777.56 785.16a12 12 0 1 1-12-12 12 12 0 0 1 12 12zM694.98 752.44a12 12 0 1 1 6.2-15.68 12 12 0 0 1-6.2 15.68zM734.38 678.8a12 12 0 1 1 6.2-15.68 12 12 0 0 1-6.2 15.68z" fill="#E08476" p-id="797"></path><path d="M852.96 516.8a30.8 30.8 0 0 0 7.66-23.66l-7.86-83.32-7.9-2.24c-9.02-2.56-18-4.8-27.2-6.8v-20.54a22.44 22.44 0 0 0-22.4-22.42h-94.6a22.24 22.24 0 0 0-12 3.56c-0.7-0.7-1.4-1.38-2.14-2a53.56 53.56 0 0 0-23.48-12.34 107.7 107.7 0 0 0-94.12-78.48v-18.26h6.12a20 20 0 0 0 20-20V148.14a20 20 0 0 0-20-20H165.76a20 20 0 0 0-20 20v82.14a20 20 0 0 0 20 20h6.12v18.26a107.84 107.84 0 0 0-98 107.24v411.2a107.82 107.82 0 0 0 107.7 107.68h377.6a107.56 107.56 0 0 0 53.16-14l0.14 3.04a12.9 12.9 0 0 0 12.86 12.2h190.9a12.86 12.86 0 0 0 12.86-12.28l12.26-259.28 0.46-0.14c-0.12-0.36-0.24-0.74-0.4-1.12l4.78-100.78a27.24 27.24 0 0 0 6.76-5.5z m-16.22-21.4a6.9 6.9 0 0 1-1.54 5.24 2.4 2.4 0 0 1-1.62 0.92H607.22a2.36 2.36 0 0 1-1.68-0.98 7 7 0 0 1-1.46-5.46l8.66-66.52a427.36 427.36 0 0 1 108.98-14.2h0.54a427.36 427.36 0 0 1 108.16 14.12z m-15.36 43.02h-33.86v24h32.74l-2.14 45.16c-16.72-4.28-44.14-5.78-88.48-1.3-70.3 7.12-100-8.38-108-14l-1.52-30h145.6v-24H618.8l-0.66-12.86H822z m-27.72-156.6v14.4a447.04 447.04 0 0 0-71.36-5.82q-10 0-20 0.46v-9.04z m-115.52 10.76a451.62 451.62 0 0 0-56.92 9.22v-7.56c0-13.68 12.78-24.82 28.5-24.82a30.42 30.42 0 0 1 20.58 7.66 23.24 23.24 0 0 1 7.84 15.5zM169.78 226.24v-74h401.14v74H169.78z m375.06 24V268H195.88v-17.82zM181.16 292h378.42a83.72 83.72 0 0 1 78.12 54.66c-23.18 5.08-40.48 24.44-40.48 47.52V408l-6.24 1.78v0.2h-41.52v24h38.38l-7.56 58a30.9 30.9 0 0 0 7.22 24.4 27.78 27.78 0 0 0 6.42 5.42l10.64 207.66H97.86V434h414.26v-24H97.86v-34.2A83.78 83.78 0 0 1 181.16 292z m378 578.56H181.56a83.76 83.76 0 0 1-83.3-75.66h109.22v-24H97.86v-17.46h508l0.9 17.46H242.42v24H608l2.96 57.76a83.5 83.5 0 0 1-51.8 17.96z m76.74 1.2l-0.44-8.36H806l-0.4 8.36z m171.22-32.36h-172.88l-11.24-219.18c19.12 8 52.9 15.62 109.06 10 55.66-5.64 77.36-0.7 84.88 2.24zM809.526 309.482l35.35-59.56 20.638 12.25-35.35 59.56zM855.32 351.198l77.118-11.168 3.44 23.752-77.116 11.168z" fill="#142546" p-id="798"></path><path d="M723.646 239.078l22.5-8.354 27.12 73.046-22.498 8.354zM448.7 470.38l-0.62-1-0.8-0.84c-0.96-1.04-24.22-25-74.78-13.48l-3.76 0.86-2.56 2.88a44.2 44.2 0 0 0-4.34 52.38l0.62 1a32.44 32.44 0 0 0 18.48 14.12 75.56 75.56 0 0 0 18.7 3.1 54.58 54.58 0 0 1 1.66 22.48c-2 14.68-1.36 25.9 0.68 34.5a18.3 18.3 0 0 1-1.86-0.58 46.28 46.28 0 0 0-43.74 4.7c-31.18-10.1-52.4-3.5-64.94 4.12a28.76 28.76 0 0 1-22.86 3.38l-1.38-0.42-6.78 23.02 1.38 0.42a51.1 51.1 0 0 0 14.32 2 53.54 53.54 0 0 0 27.88-7.88c6.64-4 17.32-7.5 33.14-4.8-0.8 1.2-1.62 2.42-2.44 3.7l20.32 12.78c10.92-17.36 23.48-23.84 36.32-18.72a44.68 44.68 0 0 0 22.54 2.54l3.54-0.48a27.5 27.5 0 0 0 4 2.12 13.34 13.34 0 0 1 6.56 6.32l21.44-10.78a37.58 37.58 0 0 0-18.3-17.5c-3.72-1.64-9.14-10.9-5.86-35.24a79.08 79.08 0 0 0-1.78-30 35.4 35.4 0 0 0 13.08-9.58l-18.8-14.94c0 0.1-8.34 9.02-30 2.74a8.58 8.58 0 0 1-4.82-3.78l-0.64-1.02a20 20 0 0 1-0.12-20.88c29.34-5.54 43.72 4.12 47.12 6.88 6.44 10.82 48.98 85.42 37.04 150.72-0.28 1.6-0.52 3.28-0.72 5.16-0.36 3.38-2 7.14-11.82 6.32l-3.42-0.28-3.06 1.56c-1.14 0.6-114.66 58-176.58 15.32l-13.64 19.76c21.3 14.7 46.68 20 72.12 20 56 0 112.46-25.6 126.12-32.22 21.52 0.34 32.62-13.44 34.14-27.88 0.14-1.28 0.3-2.38 0.48-3.38 14.36-79.4-38.98-165.58-41.26-169.2z" fill="#142546" p-id="799"></path></svg>