<?xml version="1.0" standalone="no"?><!DOCTYPE svg PUBLIC "-//W3C//DTD SVG 1.1//EN" "http://www.w3.org/Graphics/SVG/1.1/DTD/svg11.dtd"><svg t="1639662632429" class="icon" viewBox="0 0 1024 1024" version="1.1" xmlns="http://www.w3.org/2000/svg" p-id="3397" xmlns:xlink="http://www.w3.org/1999/xlink" width="200" height="200"><defs><style type="text/css"></style></defs><path d="M512.02048 483.71712m-257.49504 0a257.49504 257.49504 0 1 0 514.99008 0 257.49504 257.49504 0 1 0-514.99008 0Z" fill="#82D1C5" p-id="3398"></path><path d="M455.92576 271.74912a22.17984 22.17984 0 0 1-29.51168-8.6016 22.03648 22.03648 0 0 1 9.23648-30.08512c66.7648-36.31104 151.28576-31.00672 212.5824 15.11424a199.00416 199.00416 0 0 1 66.1504 84.31616c4.42368-0.59392 8.94976-0.9216 13.68064-0.9216 84.23424 0 153.62048 69.67296 153.62048 153.68192h38.35904c19.98848 0 36.6592 16.32256 36.6592 36.59776v1.47456c0 168.48896-68.8128 246.23104-126.81216 311.15264-35.16416 38.68672-64.36864 72.27392-64.36864 118.80448 0 20.23424-16.67072 36.92544-36.63872 36.92544H302.26432a36.90496 36.90496 0 0 1-36.92544-36.92544c0-46.51008-29.75744-80.11776-64.26624-118.80448-58.08128-64.9216-127.488-142.92992-127.488-312.64768 0-20.2752 16.71168-36.59776 37.56032-36.59776h45.79328a157.51168 157.51168 0 0 1-8.88832-109.60896 158.69952 158.69952 0 0 1 45.21984-77.12768L72.43776 88.6784a36.06528 36.06528 0 0 1 13.35296-50.05312c16.9984-10.11712 39.99744-3.85024 50.05312 13.39392l121.18016 210.20672a158.96576 158.96576 0 0 1 89.06752-1.47456c40.16128 10.71104 76.47232 36.5568 98.79552 75.63264 13.39392 22.91712 24.71936 55.35744 31.58016 90.48064 3.85024 19.12832 6.2464 38.72768 6.81984 58.40896h354.97984c-0.32768-60.47744-49.74592-109.28128-110.1824-109.28128-3.8912 0-8.2944 0-11.93984 0.24576-3.54304 0.59392-7.43424 0.96256-10.11712 1.80224a21.36064 21.36064 0 0 1-27.4432-14.56128 154.70592 154.70592 0 0 0-56.54528-80.0768c-47.616-35.7376-113.70496-39.97696-166.11328-11.65312z m425.7792 287.04768H148.66432c9.23648 117.00224 62.50496 175.9232 107.43808 226.87744 37.00736 41.39008 68.79232 78.00832 79.85152 130.72384h359.3216c10.752-52.71552 42.88512-89.31328 79.23712-130.72384 45.21984-50.95424 98.26304-109.8752 107.19232-226.87744zM326.98368 331.59168c-46.46912-12.47232-95.86688 15.79008-108.38016 62.52544-10.38336 38.76864 3.8912 64.32768 25.31328 91.15648h166.17472a275.02592 275.02592 0 0 0-6.00064-44.07296c-5.34528-27.36128-13.4144-52.44928-22.58944-68.1984a91.25888 91.25888 0 0 0-54.51776-41.41056z" fill="#ffffff" p-id="3399" data-spm-anchor-id="a313x.7781069.0.i1" class="selected"></path></svg>